<svg width="98" height="35" viewBox="0 0 98 35" fill="none" xmlns="http://www.w3.org/2000/svg">
<path d="M0.36 34V0.815998H6.504C7.74133 0.815998 8.552 1.37066 8.936 2.48L9.48 4.272C10.0347 3.696 10.6107 3.17333 11.208 2.704C11.8053 2.21333 12.4453 1.79733 13.128 1.456C13.832 1.09333 14.5787 0.815998 15.368 0.623997C16.1787 0.410664 17.064 0.303997 18.024 0.303997C20.0293 0.303997 21.6827 0.826664 22.984 1.872C24.3067 2.896 25.3093 4.272 25.992 6C26.5467 4.976 27.2187 4.10133 28.008 3.376C28.8187 2.65067 29.6827 2.064 30.6 1.616C31.5387 1.168 32.52 0.837332 33.544 0.623997C34.5893 0.410664 35.624 0.303997 36.648 0.303997C38.5467 0.303997 40.232 0.591998 41.704 1.168C43.176 1.72267 44.4027 2.544 45.384 3.632C46.3867 4.69866 47.144 6.02133 47.656 7.6C48.168 9.15733 48.424 10.928 48.424 12.912V34H38.504V12.912C38.504 9.47733 37.032 7.76 34.088 7.76C32.744 7.76 31.624 8.208 30.728 9.104C29.8533 9.97867 29.416 11.248 29.416 12.912V34H19.496V12.912C19.496 11.0133 19.1227 9.68 18.376 8.912C17.6293 8.144 16.5307 7.76 15.08 7.76C14.184 7.76 13.3307 7.96266 12.52 8.368C11.7307 8.77333 10.984 9.31733 10.28 10V34H0.36ZM71.9175 20.496C69.9335 20.5813 68.3015 20.752 67.0215 21.008C65.7415 21.264 64.7282 21.584 63.9815 21.968C63.2348 22.352 62.7122 22.7893 62.4135 23.28C62.1362 23.7707 61.9975 24.304 61.9975 24.88C61.9975 26.0107 62.3068 26.8107 62.9255 27.28C63.5442 27.728 64.4508 27.952 65.6455 27.952C66.9255 27.952 68.0455 27.728 69.0055 27.28C69.9655 26.832 70.9362 26.1067 71.9175 25.104V20.496ZM54.0615 5.424C56.0668 3.65333 58.2855 2.34133 60.7175 1.488C63.1708 0.613332 65.7948 0.175999 68.5895 0.175999C70.5948 0.175999 72.3975 0.506666 73.9975 1.168C75.6188 1.808 76.9842 2.71467 78.0935 3.888C79.2242 5.04 80.0882 6.416 80.6855 8.016C81.2828 9.616 81.5815 11.3653 81.5815 13.264V34H77.0375C76.0988 34 75.3842 33.872 74.8935 33.616C74.4242 33.36 74.0295 32.8267 73.7095 32.016L73.0055 30.192C72.1735 30.896 71.3735 31.5147 70.6055 32.048C69.8375 32.5813 69.0375 33.04 68.2055 33.424C67.3948 33.7867 66.5202 34.0533 65.5815 34.224C64.6642 34.416 63.6402 34.512 62.5095 34.512C60.9948 34.512 59.6188 34.32 58.3815 33.936C57.1442 33.5307 56.0882 32.944 55.2135 32.176C54.3602 31.408 53.6988 30.4587 53.2295 29.328C52.7602 28.176 52.5255 26.8533 52.5255 25.36C52.5255 24.1653 52.8242 22.96 53.4215 21.744C54.0188 20.5067 55.0535 19.3867 56.5255 18.384C57.9975 17.36 59.9815 16.5067 62.4775 15.824C64.9735 15.1413 68.1202 14.7573 71.9175 14.672V13.264C71.9175 11.3227 71.5122 9.92533 70.7015 9.072C69.9122 8.19733 68.7815 7.76 67.3095 7.76C66.1362 7.76 65.1762 7.888 64.4295 8.144C63.6828 8.4 63.0108 8.688 62.4135 9.008C61.8375 9.328 61.2722 9.616 60.7175 9.872C60.1628 10.128 59.5015 10.256 58.7335 10.256C58.0508 10.256 57.4748 10.0853 57.0055 9.744C56.5362 9.40267 56.1522 8.99733 55.8535 8.528L54.0615 5.424ZM86.5785 28.976C86.5785 28.208 86.7172 27.4933 86.9945 26.832C87.2932 26.1707 87.6878 25.5947 88.1785 25.104C88.6905 24.6133 89.2878 24.2293 89.9705 23.952C90.6532 23.6533 91.3998 23.504 92.2105 23.504C92.9998 23.504 93.7358 23.6533 94.4185 23.952C95.1012 24.2293 95.6985 24.6133 96.2105 25.104C96.7225 25.5947 97.1172 26.1707 97.3945 26.832C97.6932 27.4933 97.8425 28.208 97.8425 28.976C97.8425 29.744 97.6932 30.4693 97.3945 31.152C97.1172 31.8133 96.7225 32.3893 96.2105 32.88C95.6985 33.3707 95.1012 33.7547 94.4185 34.032C93.7358 34.3093 92.9998 34.448 92.2105 34.448C91.3998 34.448 90.6532 34.3093 89.9705 34.032C89.2878 33.7547 88.6905 33.3707 88.1785 32.88C87.6878 32.3893 87.2932 31.8133 86.9945 31.152C86.7172 30.4693 86.5785 29.744 86.5785 28.976Z" fill="white"/>
</svg>
